<svg id="Layer_1" data-name="Layer 1" xmlns="http://www.w3.org/2000/svg" xmlns:xlink="http://www.w3.org/1999/xlink" viewBox="0 0 300 345"><defs><style>.cls-1{fill:url(#linear-gradient);}.cls-2{fill:#f7941d;}.cls-3{fill:#cb7018;}.cls-4{fill:#b25b1f;}.cls-5{fill:#8a3e17;}.cls-6{fill:#471900;}.cls-7{fill:#703501;}.cls-8{fill:#15141a;}.cls-9{fill:#246341;}.cls-10{fill:#175234;}</style><linearGradient id="linear-gradient" x1="150" y1="356.11" x2="150" y2="161.16" gradientUnits="userSpaceOnUse"><stop offset="0" stop-color="#f7941d"/><stop offset="0.28" stop-color="#f47e20"/></linearGradient></defs><g id="halloween"><path class="cls-1" d="M263.62,345H36.38A36.38,36.38,0,0,1,0,308.62V259.14H300v49.48A36.38,36.38,0,0,1,263.62,345Z"/><rect class="cls-2" y="45" width="300" height="253.39" rx="36.38"/><path class="cls-3" d="M106.21,63.47a42.63,42.63,0,0,0-16.78,17.6A10.19,10.19,0,0,0,97,95.68c7.45,1.16,17.31,1.85,26.16-.3a6.83,6.83,0,0,1,8.31,5,89.23,89.23,0,0,0,4,12.53,10.1,10.1,0,0,0,9.49,6.3v-66C130,53.93,117.16,57.6,106.21,63.47Z"/><path class="cls-4" d="M145,47.19v6c1.32-.07,2.65-.11,4-.13l1.57,0H151c1.35,0,2.68,0,4,.09V45H145Z"/><path class="cls-3" d="M155,113.47a42,42,0,0,0,7.76-11.62A6.8,6.8,0,0,1,172,98.47c8.67,4.49,19.47,5.8,27.6,6a10.15,10.15,0,0,0,10.13-12.91,42.69,42.69,0,0,0-14-21.06,6.77,6.77,0,0,1-2-7.67c-11-5.67-23.85-9.16-38.8-9.73Z"/><path class="cls-3" d="M107.18,45a54.66,54.66,0,0,0,2.27,6.07,97.76,97.76,0,0,1,20-6.07Z"/><path class="cls-3" d="M205.87,49.15A10.29,10.29,0,0,0,207.81,45H171.7a95.93,95.93,0,0,1,28.83,10.4C202.52,53.27,204.31,51.13,205.87,49.15Z"/><path class="cls-5" d="M149,53.07c-1.35,0-2.68.06-4,.13v66a10.08,10.08,0,0,0,4-.87Z"/><path class="cls-5" d="M151,53.06v64.1c.15-.11.3-.21.45-.33a42.32,42.32,0,0,0,3.55-3.36V53.15C153.68,53.1,152.35,53.06,151,53.06Z"/><path class="cls-6" d="M149,53.07v65.27a10,10,0,0,0,2-1.18V53.06h-.43Z"/><path class="cls-5" d="M195.65,60.19l.35-.32a93.34,93.34,0,0,0-41-10.72v4c14.95.57,27.82,4.06,38.8,9.73A6.85,6.85,0,0,1,195.65,60.19Z"/><path class="cls-5" d="M155,47.15a96.19,96.19,0,0,1,42.61,11.21c1-1,2-2,2.92-3A95.93,95.93,0,0,0,171.7,45H155Z"/><path class="cls-6" d="M155,47.15v2a93.34,93.34,0,0,1,41,10.72c.55-.5,1.09-1,1.61-1.51A96.19,96.19,0,0,0,155,47.15Z"/><path class="cls-5" d="M145,49.2a94.75,94.75,0,0,0-33.66,7.65,6.74,6.74,0,0,1-3.57,5.74c-.52.28-1,.58-1.56.88C117.16,57.6,130,53.93,145,53.2Z"/><path class="cls-5" d="M111.08,54.72A98.4,98.4,0,0,1,145,47.19V45H129.44a97.76,97.76,0,0,0-20,6.07c.35.79.71,1.57,1.11,2.33A7.38,7.38,0,0,1,111.08,54.72Z"/><path class="cls-6" d="M111.08,54.72a7.07,7.07,0,0,1,.26,2.13A94.75,94.75,0,0,1,145,49.2v-2A98.4,98.4,0,0,0,111.08,54.72Z"/><path class="cls-4" d="M149,118.34a10.08,10.08,0,0,1-4,.87V298.39h4Z"/><path class="cls-4" d="M151.45,116.83c-.15.12-.3.22-.45.33V298.39h4V113.47A42.32,42.32,0,0,1,151.45,116.83Z"/><path class="cls-7" d="M149,298.39h2V117.16a10,10,0,0,1-2,1.18Z"/><path class="cls-4" d="M252.8,176.26l-.28-.29v-.4c0-47.32-17.8-94.94-56.52-115.7l-.35.32a6.85,6.85,0,0,0-1.85,2.69c39.63,20.45,54.72,69.35,54.72,112.69v2l1.4,1.45c37.07,38.4,31.89,110.84,31.83,111.57l-.12,2,.55.7a34.72,34.72,0,0,0,3.56-2.41C285.87,289.2,290.9,215.73,252.8,176.26Z"/><path class="cls-4" d="M197.61,58.36a93.44,93.44,0,0,1,31.92,28.76c16.05,22.71,24.92,54,25,88,35.2,36.82,33.89,102,33.32,114a37.22,37.22,0,0,0,4.19-4.42c.48-19.41-1.14-76.08-33.52-111.16-.34-34.28-9.44-65.74-25.71-88.76A97.77,97.77,0,0,0,200.53,55.4C199.6,56.39,198.63,57.38,197.61,58.36Z"/><path class="cls-7" d="M254.52,175.16c-.07-34.07-8.94-65.33-25-88a93.44,93.44,0,0,0-31.92-28.76c-.52.51-1.06,1-1.61,1.51,38.72,20.76,56.52,68.38,56.52,115.7v.4l.28.29c38.1,39.47,33.07,112.94,32.94,114.63q1.1-.84,2.1-1.74C288.41,277.15,289.72,212,254.52,175.16Z"/><path class="cls-4" d="M111.34,56.85c-43,18.83-62.72,68.95-62.72,118.72v.4l-.28.29C10,216,15.34,290.18,15.4,290.92l0,.4-.22.27a34.26,34.26,0,0,0,3.4,2.16l.93-1.14-.15-2c-.06-.73-5.24-73.17,31.83-111.57l1.4-1.45v-2c0-42.92,14.8-91.3,53.59-112.1.52-.3,1-.6,1.56-.88A6.74,6.74,0,0,0,111.34,56.85Z"/><path class="cls-4" d="M13.35,290.17c-.49-8.62-3.11-77,33.27-115,.07-34.07,8.94-65.33,25-88,10.51-14.87,23.85-25.76,39.47-32.4a7.38,7.38,0,0,0-.52-1.32c-.4-.76-.76-1.54-1.11-2.33C93.19,58,79.29,69.32,68.34,84.81c-16.27,23-25.37,54.48-25.71,88.76-33.2,36-34.06,94.64-33.48,112.56A36.45,36.45,0,0,0,13.35,290.17Z"/><path class="cls-7" d="M111.08,54.72c-15.62,6.64-29,17.53-39.47,32.4-16,22.71-24.92,54-25,88-36.38,38.05-33.76,106.39-33.27,115,.6.5,1.23,1,1.86,1.42l.22-.27,0-.4C15.34,290.18,10,216,48.34,176.26l.28-.29v-.4c0-49.77,19.69-99.89,62.72-118.72A7.07,7.07,0,0,0,111.08,54.72Z"/><rect class="cls-7" x="151" y="298.39" width="4" height="46.61"/><rect class="cls-7" x="145" y="298.39" width="4" height="46.61"/><rect class="cls-6" x="149" y="298.39" width="2" height="46.61"/><path class="cls-7" d="M293.88,328.82h0l-.21.29Z"/><path class="cls-7" d="M291.84,289.57c.06-1.15.14-2.79.19-4.84a37.22,37.22,0,0,1-4.19,4.42c0,.69-.06,1.22-.08,1.54,1.67,2.23,10.41,15.27,6.12,38.12A36.46,36.46,0,0,0,299,317C299.07,302.55,294.2,293.24,291.84,289.57Z"/><path class="cls-7" d="M286,291.63l-.25-.31,0-.4v0a34.72,34.72,0,0,1-3.56,2.41l.66.83c.5.64,11.91,15.58,2.47,43.7a36.78,36.78,0,0,0,5.71-5.3C297.44,306.21,286.09,291.79,286,291.63Z"/><path class="cls-6" d="M287.76,290.69c0-.32.05-.85.08-1.54q-1,.9-2.1,1.74v0l0,.4.25.31c.13.16,11.48,14.58,5.06,40.9.47-.54.93-1.09,1.37-1.66l.26-.34c.35-.47.69-.94,1-1.43l.21-.29C298.17,306,289.43,292.92,287.76,290.69Z"/><path class="cls-6" d="M291,332.55q.72-.82,1.38-1.68c-.44.57-.9,1.12-1.37,1.66Z"/><path class="cls-7" d="M13.38,290.69c0-.14,0-.32,0-.52a36.45,36.45,0,0,1-4.2-4c0,1.41.1,2.57.15,3.44-2.59,4-8.2,14.84-7,31.72A36.43,36.43,0,0,0,7.7,331C2.41,306.79,11.66,293,13.38,290.69Z"/><path class="cls-7" d="M15.18,291.63c-.13.16-11.95,15.19-4.62,42.58a36.56,36.56,0,0,0,5.63,4.67c-10.09-28.8,1.6-44.1,2.08-44.72l.34-.41a34.26,34.26,0,0,1-3.4-2.16Z"/><path class="cls-6" d="M15.18,291.63l0,0c-.63-.45-1.26-.92-1.86-1.42,0,.2,0,.38,0,.52-1.72,2.3-11,16.1-5.68,40.29a.1.1,0,0,0,0,0c.19.25.4.49.6.73.36.44.73.88,1.11,1.3l.6.63c.16.18.34.35.51.52C3.23,306.82,15.05,291.79,15.18,291.63Z"/><path class="cls-8" d="M190.58,266.07l-8.68-17.8a253.05,253.05,0,0,1-31.18,1.89,254.39,254.39,0,0,1-31.33-1.9l-8.68,17.81-10.2-20.9c-23.89-5-39.35-12.27-45.29-15.43-.07-.21-.12-.42-.19-.63,9.33,30.11,43.25,53.11,85,56.31l10.65-21.85,10.61,21.75c40.81-3.53,73.95-26,83.5-55.51-5.82,3.19-20.68,10.39-44,15.32Z"/><path class="cls-4" d="M181.9,232.42a253.05,253.05,0,0,1-31.18,1.89,256.47,256.47,0,0,1-31.33-1.89l-8.68,17.8v15.85l8.68-17.81a254.39,254.39,0,0,0,31.33,1.9,253.05,253.05,0,0,0,31.18-1.89l8.68,17.8V250.22Z"/><path class="cls-4" d="M200.79,229.28v15.85c23.28-4.93,38.14-12.13,44-15.32.13-.4.25-.81.37-1.22s.32-1.1.47-1.66c.11-.4.22-.8.32-1.21.21-.85.39-1.7.56-2.56.07-.35.13-.69.19-1,.13-.75.25-1.5.35-2.26,0-.23.08-.47.1-.71.12-1,.21-2,.28-2.93,0-.26,0-.51.05-.77.05-1,.09-2.06.09-3.1C247.53,212.35,231.45,222.79,200.79,229.28Z"/><path class="cls-4" d="M52.47,212.35c0,1.05,0,2.1.1,3.14,0,.24,0,.48,0,.72.07,1,.16,2,.28,3l.09.59c.11.85.25,1.7.4,2.54,0,.25.08.5.13.75.19.94.39,1.87.62,2.79.08.3.16.6.23.89.21.78.43,1.56.67,2.33.07.21.12.42.19.63,5.94,3.16,21.4,10.46,45.29,15.43V229.32C69.31,222.84,52.47,212.35,52.47,212.35Z"/><polygon class="cls-7" points="100.51 229.32 100.51 245.16 110.71 266.07 110.71 250.22 100.51 229.32"/><polygon class="cls-7" points="190.58 250.22 190.58 266.07 200.79 245.13 200.79 229.28 190.58 250.22"/><path class="cls-8" d="M230.46,189.51c-17.47,4.42-28.36-5.43-32.74-20.26l-13.38,3.39a49.65,49.65,0,0,0,94.45-23.93l-29.2,7.39C252.81,171.22,247.93,185.08,230.46,189.51Z"/><path class="cls-8" d="M69.54,189.51c17.47,4.42,28.36-5.43,32.74-20.26l13.38,3.39a49.65,49.65,0,0,1-94.45-23.93l29.2,7.39C47.19,171.22,52.07,185.08,69.54,189.51Z"/><path class="cls-4" d="M229.25,177.45c-13.64,3.46-22.55-5.81-26.47-19.38l-5.06,11.18c4.38,14.83,15.27,24.68,32.74,20.26s22.35-18.29,19.13-33.41l-6.3-8.3C246.3,161.6,242.89,174,229.25,177.45Z"/><path class="cls-7" d="M278.79,148.7c-.09-1.58-.25-3.16-.49-4.74l-.06-.35c-.11-.67-.22-1.35-.36-2s-.34-1.61-.54-2.42l-34,8.63,6.3,8.3,29.2-7.39Z"/><path class="cls-7" d="M181.08,163.57c.2.8.43,1.6.67,2.38s.42,1.31.65,2c0,.11.07.23.11.34a47.16,47.16,0,0,0,1.83,4.39h0l13.38-3.39,5.06-11.18Z"/><path class="cls-4" d="M70.75,177.45c-13.64-3.45-17-15.85-14-29.65l-6.3,8.3c-3.22,15.12,1.66,29,19.13,33.41s28.36-5.43,32.74-20.26l-5.06-11.18C93.3,171.64,84.39,180.91,70.75,177.45Z"/><path class="cls-7" d="M115.66,172.63a47.16,47.16,0,0,0,1.83-4.39c0-.11.07-.23.11-.34.23-.64.45-1.29.65-2s.47-1.58.67-2.38l-21.7-5.5,5.06,11.18,13.38,3.39Z"/><path class="cls-7" d="M22.66,139.17c-.2.81-.38,1.61-.54,2.42s-.25,1.35-.36,2l-.06.35c-.24,1.58-.4,3.16-.49,4.74h0l29.2,7.39,6.3-8.3Z"/><path class="cls-9" d="M179.05,66.24a55.79,55.79,0,0,0,13-12.43,7.71,7.71,0,0,0-3.4-12C171,35.41,156.2,47.23,156.2,47.23l1,2.18h-9.43c-2.46-5.09-9.39-16.37-23.53-19.47a7.68,7.68,0,0,0-9.22,8.3c.7,7.12,2.66,16.9,8,23.45a33.65,33.65,0,0,0-19.07,16.37,7.68,7.68,0,0,0,5.77,11c7.19,1.12,17.35,1.66,25.09-2.09a58.92,58.92,0,0,0,4.06,15.12,7.68,7.68,0,0,0,12.08,3,32.54,32.54,0,0,0,10.6-17.25c6.88,6.18,18,7.72,25.88,8A7.68,7.68,0,0,0,195.06,86,33.71,33.71,0,0,0,179.05,66.24Z"/><path class="cls-10" d="M159.43,82.73a15.27,15.27,0,0,0,7-20.35A35.78,35.78,0,0,1,163.76,48a27.6,27.6,0,0,1,.75-5.41,36.56,36.56,0,0,0-8.31,4.61l1,2.18h-9.43a37.9,37.9,0,0,0-13.33-15.28,89.22,89.22,0,0,0-1.25,14.29,65.19,65.19,0,0,0,5.77,27.33A15.47,15.47,0,0,0,152.7,84.3,15,15,0,0,0,159.43,82.73Z"/><path class="cls-9" d="M179.71,5.65A13.2,13.2,0,0,0,161.3,2.39c-20.68,14.47-23.92,36.48-24,48.31a50.13,50.13,0,0,0,4.44,21,11.89,11.89,0,0,0,10.59,6.58,11.76,11.76,0,0,0,10.59-16.87,27.25,27.25,0,0,1-2.07-11c.2-7.73,6.09-19.7,15.6-26.35A13.22,13.22,0,0,0,179.71,5.65Z"/><ellipse class="cls-10" cx="170.87" cy="11.52" rx="7.02" ry="8.98" transform="translate(26.21 103.18) rotate(-36.22)"/></g></svg>